<svg width="120" height="120" viewBox="0 0 120 120" fill="none" xmlns="http://www.w3.org/2000/svg">
<path d="M2.25488 0H117.745V120H2.25488V0Z" fill="#F7DF1E"/>
<path d="M32.6201 100.28L41.4582 94.7229C43.1632 97.8641 44.7143 100.522 48.4347 100.522C52.001 100.522 54.2494 99.0723 54.2494 93.4342V55.0913H65.1025V93.5936C65.1025 105.274 58.5134 110.59 48.9 110.59C40.2179 110.59 35.1781 105.918 32.6199 100.28" fill="black"/>
<path d="M71 99.0723L79.837 93.7559C82.1633 97.7033 85.1868 100.603 90.5357 100.603C95.0326 100.603 97.9003 98.2668 97.9003 95.0447C97.9003 91.1782 94.9545 89.8087 89.9929 87.554L87.2803 86.3449C79.4499 82.8818 74.2555 78.5321 74.2555 69.3491C74.2555 60.8912 80.4574 54.4468 90.1483 54.4468C97.048 54.4468 102.01 56.9441 105.575 63.4689L97.125 69.1071C95.2644 65.6437 93.2493 64.2746 90.1485 64.2746C86.9699 64.2746 84.9542 66.3689 84.9542 69.1071C84.9542 72.4904 86.9699 73.8601 91.6209 75.9546L94.334 77.1628C103.56 81.2711 108.754 85.4593 108.754 94.8835C108.754 105.034 101.079 110.591 90.7685 110.591C80.6904 110.591 74.1782 105.597 71.0002 99.0723" fill="black"/>
</svg>
