<svg width="120" height="120" viewBox="0 0 120 120" fill="none" xmlns="http://www.w3.org/2000/svg">
<path d="M0 59.7974C0 69.273 8.84919 78.1189 22.8007 83.1049C20.0147 97.7701 22.3014 109.59 29.9391 114.196C37.79 118.93 49.4858 115.653 60.5867 105.507C71.4076 115.243 82.3439 119.075 89.9746 114.456C97.8178 109.709 100.203 97.087 97.3404 81.964C111.872 76.9405 120 69.3977 120 59.7974C120 50.5414 111.134 42.5338 97.3711 37.5796C100.453 21.8316 97.8416 10.2984 89.8877 5.50237C82.2193 0.878721 71.156 4.9087 60.176 14.9001C48.7532 4.29502 37.799 1.05714 29.8528 5.86712C22.1918 10.5039 20.0057 22.5388 22.8007 37.4756C9.32028 42.39 0 50.5784 0 59.7974Z" fill="white"/>
<path d="M94.4565 42.4993C93.351 42.1014 92.2054 41.7249 91.0259 41.3689C91.2198 40.5416 91.3977 39.725 91.5559 38.9223C94.1528 25.7416 92.4549 15.1232 86.6569 11.6271C81.0973 8.27488 72.005 11.7701 62.8223 20.1261C61.9393 20.9296 61.0538 21.7803 60.1687 22.6718C59.5789 22.0819 58.9901 21.5119 58.4028 20.9666C48.779 12.032 39.1327 8.26675 33.3404 11.7729C27.7861 15.1349 26.1413 25.1172 28.4789 37.6087C28.7046 38.8152 28.9685 40.0473 29.2669 41.3001C27.9016 41.7053 26.5836 42.1373 25.3226 42.5969C14.0397 46.71 6.83398 53.1562 6.83398 59.8427C6.83398 66.7485 14.5693 73.6751 26.3213 77.8751C27.2487 78.2065 28.211 78.5199 29.2028 78.8174C28.8808 80.1723 28.6009 81.5 28.3658 82.7951C26.1369 95.0697 27.8776 104.816 33.417 108.157C39.1388 111.607 48.7415 108.061 58.0921 99.5144C58.8311 98.8389 59.5729 98.1224 60.3159 97.3715C61.279 98.3412 62.2405 99.259 63.197 100.12C72.2541 108.269 81.1995 111.56 86.7339 108.21C92.4499 104.75 94.3076 94.2799 91.8958 81.5413C91.7116 80.5684 91.4973 79.5745 91.2566 78.5629C91.9309 78.3545 92.593 78.1393 93.2385 77.9155C105.456 73.683 113.405 66.8407 113.405 59.8427C113.405 53.132 105.967 46.6423 94.4565 42.4993Z" fill="#53C1DE"/>
<path d="M91.8052 73.3971C91.2225 73.5988 90.6246 73.7938 90.0153 73.9828C88.6665 69.5183 86.8462 64.7708 84.6187 59.8659C86.7444 55.0779 88.4943 50.3912 89.8053 45.9555C90.8955 46.2854 91.9536 46.6333 92.9732 47.0004C102.835 50.5502 108.851 55.7987 108.851 59.8427C108.851 64.1504 102.354 69.7424 91.8052 73.3971ZM87.4282 82.4659C88.4947 88.0987 88.647 93.1914 87.9406 97.1726C87.3059 100.75 86.0294 103.135 84.4512 104.09C81.0926 106.123 73.9104 103.481 66.1646 96.5114C65.2766 95.7124 64.3822 94.8593 63.485 93.9565C66.4878 90.5225 69.489 86.5304 72.4181 82.0968C77.57 81.6188 82.4374 80.8373 86.8514 79.7704C87.0688 80.6873 87.2619 81.5866 87.4282 82.4659ZM43.1649 103.739C39.8836 104.951 37.2702 104.985 35.6904 104.033C32.3288 102.006 30.9313 94.1802 32.8376 83.6829C33.0559 82.4808 33.3158 81.2459 33.6153 79.9836C37.9809 80.993 42.8126 81.7193 47.9769 82.1571C50.9257 86.4955 54.0135 90.4832 57.1253 93.9749C56.4454 94.6612 55.7682 95.3145 55.0948 95.9302C50.96 99.7093 46.8165 102.391 43.1649 103.739ZM27.7923 73.3707C22.5958 71.5136 18.3043 69.0999 15.3627 66.4661C12.7195 64.0992 11.385 61.7494 11.385 59.8427C11.385 55.7852 17.1705 50.6097 26.8197 47.0921C27.9905 46.6652 29.2161 46.263 30.488 45.8851C31.8216 50.4209 33.5709 55.1632 35.682 59.9586C33.5436 64.8252 31.7694 69.643 30.4228 74.2319C29.516 73.9594 28.6375 73.6726 27.7923 73.3707ZM32.9453 36.6946C30.9425 25.9922 32.2726 17.9188 35.6198 15.8928C39.1851 13.7346 47.069 16.8118 55.3784 24.5264C55.9095 25.0195 56.4428 25.5356 56.9775 26.0696C53.8811 29.546 50.8215 33.5038 47.8989 37.8166C42.8868 38.3024 38.0891 39.0827 33.6779 40.1276C33.4006 38.9611 33.1549 37.815 32.9453 36.6946ZM78.9151 48.5634C77.8606 46.6589 76.778 44.7994 75.6744 42.9907C79.0746 43.4401 82.3325 44.0368 85.3919 44.7669C84.4734 47.8448 83.3285 51.063 81.981 54.362C81.0143 52.4431 79.9918 50.5082 78.9151 48.5634ZM60.1687 29.4716C62.2687 31.8504 64.3716 34.5062 66.44 37.3878C64.3557 37.2849 62.2455 37.2313 60.1179 37.2313C58.0104 37.2313 55.9158 37.2837 53.8443 37.3848C55.9148 34.53 58.036 31.8777 60.1687 29.4716ZM41.3023 48.5963C40.2489 50.5062 39.2454 52.4306 38.2939 54.3585C36.9682 51.0709 35.834 47.8381 34.9075 44.7165C37.9481 44.005 41.1906 43.4233 44.5692 42.9823C43.45 44.8077 42.3585 46.6809 41.3023 48.5959V48.5963ZM44.6665 77.0427C41.1758 76.6355 37.8846 76.0837 34.8447 75.3919C35.786 72.2146 36.9452 68.9127 38.2991 65.5543C39.253 67.4808 40.2605 69.406 41.3203 71.32H41.3205C42.4001 73.27 43.5185 75.18 44.6665 77.0427ZM60.2947 90.5495C58.1369 88.1152 55.9846 85.4224 53.8826 82.526C55.9232 82.6097 58.0036 82.6525 60.1179 82.6525C62.2901 82.6525 64.4374 82.6014 66.551 82.503C64.4758 85.4516 62.3804 88.1485 60.2947 90.5495ZM82.0244 65.3831C83.4488 68.7778 84.6496 72.0624 85.603 75.1856C82.513 75.9227 79.1769 76.5163 75.6618 76.9574C76.7682 75.1243 77.8602 73.2329 78.9333 71.2873C80.019 69.3189 81.0497 67.3476 82.0244 65.3831ZM74.9898 68.9091C73.3239 71.9294 71.6136 74.8125 69.8773 77.534C66.7149 77.7704 63.4478 77.8922 60.1179 77.8922C56.8015 77.8922 53.5755 77.7845 50.4691 77.5737C48.6628 74.8165 46.9154 71.9248 45.2601 68.9351H45.2605C43.6096 65.9536 42.0901 62.9469 40.7133 59.957C42.0897 56.9602 43.6052 53.9501 45.2466 50.9739L45.2462 50.9745C46.892 47.9904 48.6241 45.1128 50.4137 42.3728C53.5831 42.1223 56.8332 41.9916 60.1177 41.9916H60.1179C63.4173 41.9916 66.6715 42.1233 69.8399 42.376C71.6022 45.0959 73.3225 47.9642 74.9748 50.9487C76.6458 53.9667 78.1808 56.9568 79.569 59.8894C78.185 62.8723 76.6534 65.8925 74.9898 68.9091ZM84.3813 15.7512C87.9501 17.9031 89.3379 26.5815 87.0957 37.9616C86.9527 38.6878 86.7916 39.4274 86.6167 40.1769C82.1953 39.1102 77.3941 38.3165 72.3674 37.8234C69.4391 33.4631 66.4046 29.4992 63.3586 26.0674C64.1776 25.2437 64.9953 24.4582 65.8097 23.717C73.6775 16.5577 81.031 13.7311 84.3813 15.7512Z" fill="white"/>
<path d="M60.1182 49.8923C65.3739 49.8923 69.6346 54.3472 69.6346 59.8428C69.6346 65.3381 65.3739 69.7932 60.1182 69.7932C54.8625 69.7932 50.6018 65.3381 50.6018 59.8428C50.6018 54.3472 54.8625 49.8923 60.1182 49.8923Z" fill="#53C1DE"/>
</svg>
